<svg xmlns="http://www.w3.org/2000/svg" width="742" height="238" viewBox="0 0 742 238">
  <g id="bilibili" transform="translate(-428.5 -521.5)">
    <rect id="矩形_3" data-name="矩形 3" width="297" height="233" rx="45" transform="translate(431 524)" fill="#ffa2bd"/>
    <rect id="矩形_2" data-name="矩形 2" width="273" height="233" rx="45" transform="translate(431 524)" fill="#fb7299"/>
    <path id="bilibili-2" data-name="bilibili" d="M29.941,15.029A7.881,7.881,0,1,1,40.878,3.7L57.89,20.107a7.989,7.989,0,0,1,1.233,1.528h25.73a7.941,7.941,0,0,1,1.233-1.528L103.1,3.7a7.881,7.881,0,0,1,10.937,11.334L107.2,21.641h5.1a32.081,32.081,0,0,1,32.076,32.07V97.874a32.084,32.084,0,0,1-32.089,32.089H32.083A32.083,32.083,0,0,1,0,97.88V53.717A32.083,32.083,0,0,1,32.083,21.635h4.7l-6.84-6.611Zm2.142,22.078A16.044,16.044,0,0,0,16.044,53.152V98.445a16.044,16.044,0,0,0,16.038,16.038H112.3a16.044,16.044,0,0,0,16.038-16.038v-45.3A16.044,16.044,0,0,0,112.3,37.108H32.083Zm8.025,31.234a8.019,8.019,0,1,1,16.038,0v7.171a8.019,8.019,0,1,1-16.038,0Zm56.146-8.019a8.021,8.021,0,0,0-8.019,8.019v7.171a8.019,8.019,0,1,0,16.038,0V68.342A8.021,8.021,0,0,0,96.254,60.323Z" transform="translate(495.31 574.882)" fill="#fff" fill-rule="evenodd"/>
    <rect id="矩形_1" data-name="矩形 1" width="737" height="233" rx="45" transform="translate(431 524)" fill="none" stroke="#000" stroke-width="5"/>
    <path id="bilibili-text" d="M354.131,156.1a41.206,41.206,0,0,1-4.558-.032c-2.876-.332-5.759-.269-8.635-.348-1.864-.055-1.809-.055-1.959-1.857-.466-5.5-.972-11-1.462-16.5-.427-4.827-.83-9.662-1.3-14.489-.427-4.424-.948-8.824-1.406-13.241-.45-4.155-.861-8.311-1.319-12.451q-.877-7.821-1.817-15.642c-.553-4.606-1.106-9.227-1.722-13.825q-1.446-10.7-2.97-21.386-1.664-11.382-3.745-22.7c-.237-1.351-.205-1.4,1.082-1.62a85.289,85.289,0,0,1,16.211-1.58c.585.016,1.185.032,1.77.1a1.54,1.54,0,0,1,1.509,1.706c.19,3.9.466,7.8.751,11.692.458,6.383.956,12.767,1.43,19.142.308,4.108.569,8.2.869,12.3.5,6.581,1.027,13.162,1.517,19.742.308,4.029.569,8.058.877,12.087.474,5.909.988,11.811,1.469,17.712.3,3.76.569,7.521.893,11.281.474,5.57.98,11.139,1.462,16.7.363,4.345.687,8.706,1.059,13.193ZM146.5,20.5c.79,0,1.975-.087,3.144.016,1.485.142,1.77.521,1.864,2.022.427,6.857.829,13.715,1.288,20.58.5,7.395,1.043,14.781,1.588,22.168q.758,10.179,1.548,20.351c.593,7.45,1.248,14.892,1.841,22.349.458,5.7.837,11.416,1.3,17.127.442,5.3.964,10.586,1.446,15.887.4,4.558.814,9.117,1.209,13.683.126,1.446.024,1.541-1.533,1.5-4.069-.1-8.113-.577-12.182-.466-.932.032-1.2-.395-1.359-1.288-.34-1.928-.284-3.887-.49-5.838-.553-5.151-.877-10.325-1.343-15.492-.427-4.693-.94-9.377-1.422-14.062-.427-4.29-.845-8.572-1.3-12.861-.458-4.211-.94-8.429-1.414-12.64-.434-3.879-.869-7.758-1.335-11.637-.687-5.68-1.367-11.36-2.117-17.033-.687-5.206-1.462-10.389-2.2-15.587q-1.495-10.591-3.358-21.125-.426-2.382-.9-4.756c-.158-.8-.016-1.264.893-1.383,2.394-.324,4.78-.822,7.189-1.059A42.531,42.531,0,0,1,146.5,20.5ZM316.866,88.977c4.582,0,4.693.032,5.427,4.163.909,5.1,1.54,10.246,2.141,15.389.632,5.483,1.272,10.957,1.857,16.448.474,4.416.869,8.848,1.311,13.256q.711,6.944,1.446,13.865c.261,2.607.514,5.222.806,7.829.087.758-.134,1.153-.877,1.24-1.572.182-3.121.4-4.685.553q-4.29.474-8.587.885c-1.485.134-1.58.055-1.857-1.383q-3.768-19.505-7.521-39.019c-1.659-8.651-3.271-17.3-4.9-25.96-.221-1.185-.419-2.386-.608-3.579a.992.992,0,0,1,.853-1.311,86.974,86.974,0,0,1,15.192-2.378Zm-192.55,0c4.9,0,4.882.016,5.641,4.479,1.169,6.9,2,13.841,2.741,20.8.719,6.763,1.517,13.509,2.228,20.264.474,4.629.853,9.259,1.3,13.873.316,3.286.7,6.565,1.051,9.844.04.4.063.806.087,1.217.079,1.6,0,1.738-1.541,1.9-3.057.316-6.13.585-9.188.885-1.106.111-2.212.277-3.318.379-1.462.134-1.509.134-1.793-1.343q-1.541-7.821-3.034-15.642-3.626-18.818-7.268-37.628c-.948-5.024-1.778-10.065-2.718-15.089-.174-.916-.047-1.343.9-1.564a86.763,86.763,0,0,1,14.908-2.37Zm64.7,52.615v21.054a3.934,3.934,0,0,0,.016.608c.095,1.027-.277,1.469-1.327,1.422-1.383-.055-2.749-.016-4.132.016-2.884.055-5.767-.063-8.651.269-1.588.19-1.556.087-1.714-1.6-.474-5.293-.988-10.594-1.469-15.9-.442-4.9-.845-9.8-1.3-14.694-.458-5.032-.98-10.057-1.446-15.089-.316-3.35-.6-6.7-.877-10.057-.371-4.369-.711-8.73-1.1-13.1-.158-1.841-.024-2.1,1.793-2.291a89.716,89.716,0,0,1,14.141-.442,19.8,19.8,0,0,1,3.484.577c1.438.34,1.6.553,1.675,2.054.158,3.034.316,6.067.395,9.1.087,3.373.016,6.747.134,10.12.316,9.306.269,18.621.379,27.935Zm192.171.948v19.94c0,.34-.008.672.008,1.019.071.869-.34,1.185-1.161,1.177-2.038-.016-4.069,0-6.1.024-2.3.024-4.59.016-6.881.261-1.517.174-1.525.063-1.659-1.446L363.485,142.8c-.569-6.375-1.106-12.751-1.683-19.126-.608-6.581-1.264-13.138-1.849-19.711q-.431-4.935-.79-9.875c-.087-1.438.063-1.691,1.683-1.817a83.413,83.413,0,0,1,8.429-.553,48.646,48.646,0,0,1,8.437.427c2.37.458,2.5.593,2.631,3.136.411,7.481.284,14.979.553,22.46.269,7.963.079,15.927.292,24.806Zm-69.1-89.745a28.416,28.416,0,0,1,4.266.3,1.454,1.454,0,0,1,1.319,1.454q.593,6.435,1.24,12.877c.34,3.476.711,6.952,1.059,10.436l.032.205c.284,2.188.221,2.252-1.912,2.37-1.9.1-3.792.269-5.688.387-1.24.079-1.635.284-1.841-1.533-.711-6.423-1.533-12.822-2.323-19.237q-.327-2.7-.727-5.4Q307.275,53.119,308.7,53c1.248-.119,2.5-.15,3.389-.205Zm-191.934.024a23.879,23.879,0,0,1,3.887.269,1.3,1.3,0,0,1,1.185,1.327c.158,2.007.458,4.013.648,6.02q.9,9.243,1.738,18.5c.119,1.343.087,1.375-1.161,1.462-2.22.166-4.448.332-6.676.419-1.3.063-1.454-.095-1.62-1.422-.561-4.543-1.09-9.085-1.635-13.636-.435-3.745-.806-7.489-1.343-11.226-.142-1.027.2-1.319,1.019-1.485a23.524,23.524,0,0,1,3.958-.229ZM187.746,69.8V81.512c0,1.754-.024,1.77-1.77,1.746a54.728,54.728,0,0,1-6.257-.324c-1.343-.174-1.375-.126-1.414-1.556-.134-4.772-.277-9.551-.371-14.323-.071-3.231-.111-6.454-.3-9.686-.1-1.659-.016-1.683,1.58-1.706a43.019,43.019,0,0,1,7.055.442c1.406.221,1.469.221,1.477,1.785l.008,11.913h-.008Zm192.266.095V81.622c0,1.643-.032,1.659-1.675,1.643q-3.232-.032-6.454-.308c-1.074-.079-1.383-.529-1.311-1.5v-.411c-.158-7.537-.332-15.073-.474-22.61-.008-.4-.032-.806-.016-1.209.024-1.525.024-1.564,1.548-1.548q3.14.012,6.265.324c2.552.253,2.1.569,2.117,2.591V69.9ZM114.891,79.063c.055,2.149.055,2.149-2,2.647-1.39.34-2.781.711-4.187,1.027-1.193.269-1.406.119-1.612-1.059l-4.274-24c-.284-1.659-.213-1.754,1.414-2.046,2-.348,3.99-.7,5.988-1.011,1.272-.2,1.438-.126,1.691,1.28.506,2.844.98,5.688,1.359,8.556.577,4.527,1.051,9.077,1.58,13.612.039.332.024.672.039,1Zm180.2-23.195c2.615-.427,5.254-.869,7.9-1.28.948-.15,1.232.45,1.351,1.3.45,3.128,1.019,6.241,1.382,9.37.545,4.543,1.288,9.061,1.422,13.636l.024,1.422a1.138,1.138,0,0,1-1.011,1.256c-1.785.4-3.579.806-5.356,1.232-.853.205-1.146-.158-1.288-1-.529-3.184-1.153-6.352-1.7-9.52q-1.387-7.845-2.726-15.69C295.069,56.405,295.093,56.2,295.093,55.868ZM174.758,74.212a61.8,61.8,0,0,1-.292,7.624c-.111.766-.332,1.264-1.153,1.335-1.77.142-3.531.284-5.293.466-.845.087-1.082-.277-1.225-1.114-.4-2.473-.316-4.977-.561-7.458-.45-4.693-.64-9.409-.948-14.11-.071-1.146-.182-2.291-.277-3.429-.047-.64.205-1,.885-1.027,2.291-.095,4.566-.514,6.865-.427,1.343.047,1.454.134,1.548,1.493.063.94.047,1.888.071,2.836l.379,13.809Zm192.179-2.694c0,3.239.039,6.478,0,9.717-.032,1.675-.221,1.817-1.809,1.975-1.572.142-3.128.261-4.693.427-.885.095-1.3-.158-1.351-1.185-.229-4.3-.537-8.6-.837-12.893-.237-3.563-.5-7.126-.743-10.681-.032-.411-.008-.814-.032-1.217-.04-.711.174-1.13.972-1.153,2.22-.079,4.424-.506,6.66-.427,1.367.047,1.39.071,1.493,1.493.332,4.637.363,9.291.34,13.944Zm-258.6,57.853c2.8,3.1,2.947,6.763,2.022,10.594a22.611,22.611,0,0,1-5.633,9.836A54.984,54.984,0,0,1,89.642,161a105.221,105.221,0,0,1-30.234,10.531,175.067,175.067,0,0,1-22.989,2.97c-2.354.126-4.7.237-7.055.221-1.706,0-3.421.047-5.119-.016-1.454-.047-1.659-.3-1.778-1.817-.442-5.435-.814-10.878-1.3-16.314-.569-6.3-1.225-12.6-1.833-18.9-.442-4.558-.83-9.125-1.319-13.667-.561-5.356-1.193-10.7-1.817-16.061-.553-4.945-1.106-9.891-1.7-14.844q-1-8.224-2.086-16.416-1.067-7.9-2.236-15.792-1.9-12.976-4.116-25.912-1.8-10.545-4.005-21.014c-.2-.932.079-1.3.9-1.643C10.8,9.068,18.612,5.749,26.449,2.471a22.39,22.39,0,0,1,4.5-1.406c1.067-.2,1.343.024,1.311,1.106-.079,2.765.032,5.538-.237,8.3q-.1,1.107-.111,2.22c-.126,9.915-.237,19.829.016,29.752.237,8.69.687,17.372,1.185,26.055.4,6.857.964,13.715,1.556,20.556.569,6.707,1.264,13.407,1.928,20.114.118,1.272.237,1.39,1.683,1.2a62.772,62.772,0,0,1,8.611-.711,112.863,112.863,0,0,1,26.465,3.279,111.72,111.72,0,0,1,22.152,7.608,50.489,50.489,0,0,1,9.954,6.059,22.651,22.651,0,0,1,2.868,2.773Zm190.82-1.627a11.052,11.052,0,0,1,3.745,11.392,22.12,22.12,0,0,1-5.143,9.875,51.12,51.12,0,0,1-13.991,11.013,105.76,105.76,0,0,1-32.549,11.613q-9.362,1.778-18.873,2.639a72.659,72.659,0,0,1-11.21.45h-4.7c-.916,0-1.438-.292-1.517-1.383-.34-4.764-.743-9.528-1.169-14.3-.458-5.024-.964-10.057-1.438-15.089-.435-4.614-.837-9.243-1.3-13.873-.434-4.353-.932-8.7-1.406-13.051-.435-4.084-.861-8.169-1.343-12.245q-.865-7.418-1.8-14.829c-.577-4.614-1.146-9.219-1.754-13.825q-.984-7.406-2.062-14.8c-.964-6.4-2-12.767-3.018-19.142q-2.13-13.556-4.93-26.995a9.829,9.829,0,0,0-.237-1.185c-.276-.869,0-1.343.845-1.675,8.327-3.263,16.385-7.2,24.791-10.31a14.1,14.1,0,0,1,3.4-1c1.066-.1,1.335.071,1.232,1.209-.561,6.186-.237,12.4-.529,18.6-.237,5.056-.213,10.112.039,15.168.063,1.288.111,2.575.1,3.855-.071,6.067.253,12.135.553,18.2.4,8.011.98,16.006,1.58,24,.419,5.775.98,11.534,1.517,17.3.292,3.16.6,6.32.987,9.456.213,1.73.3,1.738,2,1.517a60.255,60.255,0,0,1,9.006-.7,118.661,118.661,0,0,1,31.206,4.732,98.173,98.173,0,0,1,19.979,7.861A42.935,42.935,0,0,1,299.154,127.743ZM54.21,157.661c3.918-1.872,22.966-16.8,24.475-19.229A268.68,268.68,0,0,0,50.2,127.688l4.013,29.973Zm216.282-18.249c.482-.529.435-.94-.237-1.232-1.311-.6-2.615-1.24-3.95-1.793-7.11-2.915-14.26-5.736-21.583-8.042-.64-.2-1.3-.64-2.117-.261l3.95,29.452a1.133,1.133,0,0,0,1.074-.324c6.66-4.9,13.351-9.741,19.75-15.01a32.429,32.429,0,0,0,3.113-2.789Z" transform="translate(754.012 552.598)" fill="#fb7299" fill-rule="evenodd"/>
  </g>
</svg>
