<svg xmlns="http://www.w3.org/2000/svg" width="939" height="280" viewBox="0 0 939 280">
  <g id="GitHub" transform="translate(-591 -400)">
    <rect id="矩形_2" data-name="矩形 2" width="289" height="280" rx="140" transform="translate(591 400)"/>
    <g id="矩形_1" data-name="矩形 1" transform="translate(591 400)" fill="none" stroke="#000" stroke-width="10">
      <rect width="939" height="280" rx="140" stroke="none"/>
      <rect x="5" y="5" width="929" height="270" rx="135" fill="none"/>
    </g>
    <path id="github-2" data-name="github" d="M119.476,0c66.011,0,119.476,52.53,119.476,117.385-.01,50.449-32.756,95.252-81.393,111.382-5.974,1.175-8.214-2.489-8.214-5.576,0-3.963.149-16.577.149-32.278,0-11-3.734-18.051-8.065-21.715,26.583-2.937,54.511-12.913,54.511-57.966a44.983,44.983,0,0,0-12.246-31.552c1.195-2.937,5.376-14.964-1.195-31.114,0,0-10.006-3.226-32.856,12.037a114.553,114.553,0,0,0-59.738,0C67.056,45.491,57.05,48.567,57.05,48.567c-6.571,16.149-2.39,28.176-1.195,31.114a45.249,45.249,0,0,0-12.246,31.552c0,44.9,27.778,55.029,54.362,57.966-3.435,2.927-6.571,8.065-7.617,15.7-6.87,3.086-24.045,8.065-34.8-9.688-2.24-3.525-8.961-12.177-18.369-12.037-10.006.149-4.032,5.576.149,7.776,5.078,2.788,10.9,13.212,12.246,16.587,2.39,6.6,10.155,19.216,40.174,13.79,0,9.837.149,19.076.149,21.864,0,3.086-2.24,6.611-8.214,5.576C32.886,212.807-.03,167.934,0,117.4,0,52.53,53.466,0,119.476,0Z" transform="translate(616.363 425.193)" fill="#fff" fill-rule="evenodd"/>
    <path id="github-text" d="M109.933,67.331v70.092c0,.488-.126,1.338-.739,1.582,0,0-15.3,10.869-40.547,10.869C38.14,149.874,2,140.351,2,77.586S33.608,1.875,64.477,2C91.19,2,101.962,7.99,103.685,9.084a2.663,2.663,0,0,1,.739,1.708L99.271,32.529a2.092,2.092,0,0,1-2.447,2.07C92.41,33.269,85.8,30.577,70.236,30.577c-18,0-37.36,5.124-37.36,45.545S51.249,121.3,64.484,121.3c11.268,0,15.3-1.338,15.3-1.338V91.871h-18a2.206,2.206,0,0,1-2.329-2.07V67.324a2.206,2.206,0,0,1,2.329-2.07H107.6a2.206,2.206,0,0,1,2.329,2.07Zm439.2,28.451c0,41.878-13.6,53.848-37.368,53.848-20.089,0-30.869-10.129-30.869-10.129s-.5,5.612-1.109,6.344a1.723,1.723,0,0,1-1.708.976H459.942a2.29,2.29,0,0,1-2.329-2.07l.251-135.667a2.144,2.144,0,0,1,2.078-2.07h26.1a2.144,2.144,0,0,1,2.078,2.07V55.117a49.447,49.447,0,0,1,24.747-6.469l-.118-.244c14.7,0,36.384,5.493,36.384,47.379ZM341.111,7.25a2.144,2.144,0,0,1,2.078,2.078V144.994a2.144,2.144,0,0,1-2.078,2.078h-26.1a2.144,2.144,0,0,1-2.078-2.07l.244-58H272.623v58a2.144,2.144,0,0,1-2.078,2.078h-26.1a2.232,2.232,0,0,1-2.078-2.07V9.321a2.144,2.144,0,0,1,2.078-2.07h26.1a2.144,2.144,0,0,1,2.078,2.07V59.265h40.554V9.321a2.144,2.144,0,0,1,2.085-2.07h25.848ZM442.293,51.7a2.2,2.2,0,0,1,2.329,2.07l-.244,91.216a1.991,1.991,0,0,1-2.085,2.078H425.879a2.17,2.17,0,0,1-1.959-1.094,44.06,44.06,0,0,1-.983-5.5s-13.834,9.4-30.861,9.4c-20.7,0-35.778-6.713-35.778-33.582V53.9a2.144,2.144,0,0,1,2.085-2.07H384.6a2.144,2.144,0,0,1,2.085,2.07v58c0,9.153,2.691,13.309,11.882,13.309a30.139,30.139,0,0,0,15.926-4.762V54.023a2.064,2.064,0,0,1,2.085-2.322h25.73ZM229.06,124.61h.052a2.164,2.164,0,0,1,1.73,2.189v18.314a1.954,1.954,0,0,1-1.1,1.952,52.473,52.473,0,0,1-15.556,2.684c-14.211,0-35.046-3.046-35.046-32.843V76.854h-13.59a2.2,2.2,0,0,1-2.078-2.322V57.927a2.084,2.084,0,0,1,1.59-2.07c.858-.126,14.211-3.423,14.211-3.423v-26.5a1.518,1.518,0,0,1,1.715-1.59h26.469a1.515,1.515,0,0,1,1.708,1.59V51.7h19.482a2.126,2.126,0,0,1,1.959,2.07V74.533a2.112,2.112,0,0,1-1.959,2.322H209.163V115.08c0,5.745,3.312,10.144,12.865,10.144,3.031,0,5.893-.6,7.031-.614ZM151.944,51.575a2.144,2.144,0,0,1,2.085,2.078v90c0,2.2-.614,3.3-3.061,3.3H127.441c-2.078,0-3.675-.858-3.675-3.3V54.023a2.319,2.319,0,0,1,2.085-2.44h26.1ZM519.358,97.734c0-22.107-8.946-25.035-18.381-24.052a31.906,31.906,0,0,0-13.235,4.148V120.81a29.846,29.846,0,0,0,14.95,4.4C515.313,125.579,519.358,121.054,519.358,97.734ZM139.079,10.3a16.71,16.71,0,0,1,16.665,16.858A16.784,16.784,0,1,1,139.079,10.3Z" transform="translate(911 464.063)" stroke="#fff" stroke-width="8" fill-rule="evenodd"/>
  </g>
</svg>
